<mxfile host="Electron" agent="Mozilla/5.0 (Windows NT 10.0; Win64; x64) AppleWebKit/537.36 (KHTML, like Gecko) draw.io/24.7.8 Chrome/128.0.6613.36 Electron/32.0.1 Safari/537.36" version="24.7.8">
  <diagram name="Page-1" id="mbunnhKmz6jgvR6XyMnX">
    <mxGraphModel dx="3220" dy="2120" grid="1" gridSize="10" guides="1" tooltips="1" connect="1" arrows="1" fold="1" page="0" pageScale="1" pageWidth="850" pageHeight="1100" math="0" shadow="0">
      <root>
        <mxCell id="0" />
        <mxCell id="1" parent="0" />
        <mxCell id="9eNbq8bN8Z7kRA4iMAXb-25" value="Legend" style="swimlane;whiteSpace=wrap;html=1;startSize=20;" vertex="1" parent="1">
          <mxGeometry x="-1720" y="-760" width="200" height="280" as="geometry" />
        </mxCell>
        <mxCell id="9eNbq8bN8Z7kRA4iMAXb-19" value="" style="endArrow=classic;html=1;rounded=0;" edge="1" parent="9eNbq8bN8Z7kRA4iMAXb-25">
          <mxGeometry width="50" height="50" relative="1" as="geometry">
            <mxPoint x="40" y="70" as="sourcePoint" />
            <mxPoint x="160" y="70" as="targetPoint" />
          </mxGeometry>
        </mxCell>
        <mxCell id="9eNbq8bN8Z7kRA4iMAXb-20" value="" style="shape=flexArrow;endArrow=classic;html=1;rounded=0;" edge="1" parent="9eNbq8bN8Z7kRA4iMAXb-25">
          <mxGeometry width="50" height="50" relative="1" as="geometry">
            <mxPoint x="40" y="150" as="sourcePoint" />
            <mxPoint x="160" y="150" as="targetPoint" />
          </mxGeometry>
        </mxCell>
        <mxCell id="9eNbq8bN8Z7kRA4iMAXb-21" value="Player chooses to move" style="text;html=1;align=center;verticalAlign=middle;whiteSpace=wrap;rounded=0;" vertex="1" parent="9eNbq8bN8Z7kRA4iMAXb-25">
          <mxGeometry x="40" y="30" width="120" height="30" as="geometry" />
        </mxCell>
        <mxCell id="9eNbq8bN8Z7kRA4iMAXb-22" value="Player railroaded, might skip typical paths" style="text;html=1;align=center;verticalAlign=middle;whiteSpace=wrap;rounded=0;" vertex="1" parent="9eNbq8bN8Z7kRA4iMAXb-25">
          <mxGeometry x="40" y="90" width="120" height="50" as="geometry" />
        </mxCell>
        <mxCell id="9eNbq8bN8Z7kRA4iMAXb-81" value="" style="endArrow=classic;dashed=1;html=1;rounded=0;labelBackgroundColor=#ffffff;startArrow=none;startFill=0;startSize=6;endFill=1;endSize=6;jettySize=auto;orthogonalLoop=1;strokeWidth=1;fontSize=14;" edge="1" parent="9eNbq8bN8Z7kRA4iMAXb-25">
          <mxGeometry width="50" height="50" relative="1" as="geometry">
            <mxPoint x="40" y="240" as="sourcePoint" />
            <mxPoint x="160" y="240" as="targetPoint" />
          </mxGeometry>
        </mxCell>
        <mxCell id="9eNbq8bN8Z7kRA4iMAXb-82" value="&amp;nbsp;Pre-Requisite requirement" style="text;html=1;align=center;verticalAlign=middle;resizable=0;points=[];autosize=1;strokeColor=none;fillColor=none;" vertex="1" parent="9eNbq8bN8Z7kRA4iMAXb-25">
          <mxGeometry x="15" y="198" width="170" height="30" as="geometry" />
        </mxCell>
        <mxCell id="9eNbq8bN8Z7kRA4iMAXb-26" value="DAY 1" style="swimlane;whiteSpace=wrap;html=1;startSize=20;" vertex="1" parent="1">
          <mxGeometry x="-1480" y="-960" width="1520" height="200" as="geometry">
            <mxRectangle x="-1080" y="-960" width="70" height="30" as="alternateBounds" />
          </mxGeometry>
        </mxCell>
        <mxCell id="9eNbq8bN8Z7kRA4iMAXb-112" value="" style="edgeStyle=orthogonalEdgeStyle;rounded=0;orthogonalLoop=1;jettySize=auto;html=1;" edge="1" parent="9eNbq8bN8Z7kRA4iMAXb-26" source="9eNbq8bN8Z7kRA4iMAXb-103" target="9eNbq8bN8Z7kRA4iMAXb-108">
          <mxGeometry relative="1" as="geometry" />
        </mxCell>
        <mxCell id="9eNbq8bN8Z7kRA4iMAXb-103" value="CUBICLE" style="swimlane;fontStyle=0;childLayout=stackLayout;horizontal=1;startSize=20;horizontalStack=0;resizeParent=1;resizeParentMax=0;resizeLast=0;collapsible=1;marginBottom=0;whiteSpace=wrap;html=1;" vertex="1" parent="9eNbq8bN8Z7kRA4iMAXb-26">
          <mxGeometry y="60" width="120" height="120" as="geometry" />
        </mxCell>
        <mxCell id="9eNbq8bN8Z7kRA4iMAXb-104" value="Intro" style="text;strokeColor=none;fillColor=none;align=left;verticalAlign=middle;spacingLeft=4;spacingRight=4;overflow=hidden;points=[[0,0.5],[1,0.5]];portConstraint=eastwest;rotatable=0;whiteSpace=wrap;html=1;" vertex="1" parent="9eNbq8bN8Z7kRA4iMAXb-103">
          <mxGeometry y="20" width="120" height="30" as="geometry" />
        </mxCell>
        <mxCell id="9eNbq8bN8Z7kRA4iMAXb-105" value="Choose Name" style="text;strokeColor=none;fillColor=none;align=left;verticalAlign=middle;spacingLeft=4;spacingRight=4;overflow=hidden;points=[[0,0.5],[1,0.5]];portConstraint=eastwest;rotatable=0;whiteSpace=wrap;html=1;" vertex="1" parent="9eNbq8bN8Z7kRA4iMAXb-103">
          <mxGeometry y="50" width="120" height="30" as="geometry" />
        </mxCell>
        <mxCell id="9eNbq8bN8Z7kRA4iMAXb-106" value="Told to find Sam in office for first OBJ" style="text;strokeColor=none;fillColor=none;align=left;verticalAlign=middle;spacingLeft=4;spacingRight=4;overflow=hidden;points=[[0,0.5],[1,0.5]];portConstraint=eastwest;rotatable=0;whiteSpace=wrap;html=1;" vertex="1" parent="9eNbq8bN8Z7kRA4iMAXb-103">
          <mxGeometry y="80" width="120" height="40" as="geometry" />
        </mxCell>
        <mxCell id="9eNbq8bN8Z7kRA4iMAXb-109" value="" style="edgeStyle=orthogonalEdgeStyle;rounded=0;orthogonalLoop=1;jettySize=auto;html=1;" edge="1" parent="9eNbq8bN8Z7kRA4iMAXb-26" source="9eNbq8bN8Z7kRA4iMAXb-108" target="9eNbq8bN8Z7kRA4iMAXb-28">
          <mxGeometry relative="1" as="geometry" />
        </mxCell>
        <mxCell id="9eNbq8bN8Z7kRA4iMAXb-108" value="EXPLORATION&lt;div&gt;StoryStops:&lt;/div&gt;&lt;div&gt;- Sam&#39;s Office&lt;/div&gt;" style="ellipse;whiteSpace=wrap;html=1;aspect=fixed;" vertex="1" parent="9eNbq8bN8Z7kRA4iMAXb-26">
          <mxGeometry x="200" y="60" width="120" height="120" as="geometry" />
        </mxCell>
        <mxCell id="9eNbq8bN8Z7kRA4iMAXb-8" value="" style="endArrow=classic;html=1;rounded=0;entryX=0;entryY=0.5;entryDx=0;entryDy=0;" edge="1" parent="9eNbq8bN8Z7kRA4iMAXb-26">
          <mxGeometry width="50" height="50" relative="1" as="geometry">
            <mxPoint x="520" y="119.51999999999998" as="sourcePoint" />
            <mxPoint x="600" y="119.51999999999998" as="targetPoint" />
          </mxGeometry>
        </mxCell>
        <mxCell id="9eNbq8bN8Z7kRA4iMAXb-10" value="&lt;u&gt;ELEVATOR&lt;/u&gt;&lt;div&gt;Meet Deb:&lt;/div&gt;&lt;div&gt;She explains OBJ&lt;/div&gt;" style="rounded=1;whiteSpace=wrap;html=1;" vertex="1" parent="9eNbq8bN8Z7kRA4iMAXb-26">
          <mxGeometry x="600" y="90" width="120" height="60" as="geometry" />
        </mxCell>
        <mxCell id="9eNbq8bN8Z7kRA4iMAXb-12" value="" style="shape=flexArrow;endArrow=classic;html=1;rounded=0;entryX=0;entryY=0.5;entryDx=0;entryDy=0;exitX=1;exitY=0.5;exitDx=0;exitDy=0;" edge="1" parent="9eNbq8bN8Z7kRA4iMAXb-26" source="9eNbq8bN8Z7kRA4iMAXb-10" target="9eNbq8bN8Z7kRA4iMAXb-11">
          <mxGeometry width="50" height="50" relative="1" as="geometry">
            <mxPoint x="720" y="140" as="sourcePoint" />
            <mxPoint x="770" y="90" as="targetPoint" />
          </mxGeometry>
        </mxCell>
        <mxCell id="9eNbq8bN8Z7kRA4iMAXb-24" value="SERVER ROOM" style="swimlane;whiteSpace=wrap;html=1;" vertex="1" parent="9eNbq8bN8Z7kRA4iMAXb-26">
          <mxGeometry x="800" y="40" width="520" height="140" as="geometry">
            <mxRectangle x="-680" y="-920" width="110" height="30" as="alternateBounds" />
          </mxGeometry>
        </mxCell>
        <mxCell id="9eNbq8bN8Z7kRA4iMAXb-15" value="" style="edgeStyle=orthogonalEdgeStyle;rounded=0;orthogonalLoop=1;jettySize=auto;html=1;shape=flexArrow;" edge="1" parent="9eNbq8bN8Z7kRA4iMAXb-24" source="9eNbq8bN8Z7kRA4iMAXb-11" target="9eNbq8bN8Z7kRA4iMAXb-13">
          <mxGeometry relative="1" as="geometry" />
        </mxCell>
        <mxCell id="9eNbq8bN8Z7kRA4iMAXb-11" value="&lt;u&gt;Server Room&lt;/u&gt;&lt;div&gt;Deb hands you&amp;nbsp;&lt;/div&gt;&lt;div&gt;ssd and floppy disk&amp;nbsp; of training data&lt;/div&gt;" style="rounded=1;whiteSpace=wrap;html=1;" vertex="1" parent="9eNbq8bN8Z7kRA4iMAXb-24">
          <mxGeometry y="50" width="120" height="60" as="geometry" />
        </mxCell>
        <mxCell id="9eNbq8bN8Z7kRA4iMAXb-18" value="" style="edgeStyle=orthogonalEdgeStyle;rounded=0;orthogonalLoop=1;jettySize=auto;html=1;shape=flexArrow;" edge="1" parent="9eNbq8bN8Z7kRA4iMAXb-24" source="9eNbq8bN8Z7kRA4iMAXb-13" target="9eNbq8bN8Z7kRA4iMAXb-17">
          <mxGeometry relative="1" as="geometry" />
        </mxCell>
        <mxCell id="9eNbq8bN8Z7kRA4iMAXb-13" value="&lt;u&gt;Feed Clyde&lt;/u&gt;&lt;br&gt;&lt;div&gt;Feed him ssd&lt;/div&gt;&lt;div&gt;He&#39;s a dick&lt;/div&gt;" style="rounded=1;whiteSpace=wrap;html=1;" vertex="1" parent="9eNbq8bN8Z7kRA4iMAXb-24">
          <mxGeometry x="200" y="50" width="120" height="60" as="geometry" />
        </mxCell>
        <mxCell id="9eNbq8bN8Z7kRA4iMAXb-17" value="&lt;u&gt;Feed Toby&lt;/u&gt;&lt;div&gt;Feed him floppy disk&lt;/div&gt;&lt;div&gt;He is nice but dumb&lt;/div&gt;" style="whiteSpace=wrap;html=1;rounded=1;" vertex="1" parent="9eNbq8bN8Z7kRA4iMAXb-24">
          <mxGeometry x="400" y="50" width="120" height="60" as="geometry" />
        </mxCell>
        <mxCell id="9eNbq8bN8Z7kRA4iMAXb-29" value="FEED THE AI&#39;S complete - End Day 1" style="ellipse;whiteSpace=wrap;html=1;" vertex="1" parent="9eNbq8bN8Z7kRA4iMAXb-26">
          <mxGeometry x="1400" y="80" width="120" height="80" as="geometry" />
        </mxCell>
        <mxCell id="9eNbq8bN8Z7kRA4iMAXb-30" value="" style="edgeStyle=orthogonalEdgeStyle;rounded=0;orthogonalLoop=1;jettySize=auto;html=1;shape=flexArrow;" edge="1" parent="9eNbq8bN8Z7kRA4iMAXb-26" source="9eNbq8bN8Z7kRA4iMAXb-17" target="9eNbq8bN8Z7kRA4iMAXb-29">
          <mxGeometry relative="1" as="geometry" />
        </mxCell>
        <mxCell id="9eNbq8bN8Z7kRA4iMAXb-28" value="&lt;div&gt;&lt;span style=&quot;background-color: initial;&quot;&gt;&lt;u&gt;SAM OFFICE&lt;/u&gt;&lt;/span&gt;&lt;/div&gt;&lt;div&gt;&lt;span style=&quot;background-color: initial;&quot;&gt;Sam assigns:&lt;/span&gt;&lt;br&gt;&lt;/div&gt;&lt;div&gt;OBJ - Feed the AI&#39;s&lt;/div&gt;" style="ellipse;whiteSpace=wrap;html=1;" vertex="1" parent="9eNbq8bN8Z7kRA4iMAXb-26">
          <mxGeometry x="400" y="80" width="120" height="80" as="geometry" />
        </mxCell>
        <mxCell id="9eNbq8bN8Z7kRA4iMAXb-31" value="DAY 2" style="swimlane;whiteSpace=wrap;html=1;startSize=20;" vertex="1" parent="1">
          <mxGeometry x="120" y="-960" width="2000" height="560" as="geometry" />
        </mxCell>
        <mxCell id="9eNbq8bN8Z7kRA4iMAXb-48" value="" style="edgeStyle=orthogonalEdgeStyle;rounded=0;orthogonalLoop=1;jettySize=auto;html=1;" edge="1" parent="9eNbq8bN8Z7kRA4iMAXb-31" source="9eNbq8bN8Z7kRA4iMAXb-43" target="9eNbq8bN8Z7kRA4iMAXb-47">
          <mxGeometry relative="1" as="geometry" />
        </mxCell>
        <mxCell id="9eNbq8bN8Z7kRA4iMAXb-43" value="CUBICLE" style="swimlane;fontStyle=0;childLayout=stackLayout;horizontal=1;startSize=30;horizontalStack=0;resizeParent=1;resizeParentMax=0;resizeLast=0;collapsible=1;marginBottom=0;whiteSpace=wrap;html=1;" vertex="1" parent="9eNbq8bN8Z7kRA4iMAXb-31">
          <mxGeometry y="60" width="200" height="120" as="geometry" />
        </mxCell>
        <mxCell id="9eNbq8bN8Z7kRA4iMAXb-44" value="Note informs that FEED AI&#39;S is now a daily task" style="text;strokeColor=none;fillColor=none;align=left;verticalAlign=middle;spacingLeft=4;spacingRight=4;overflow=hidden;points=[[0,0.5],[1,0.5]];portConstraint=eastwest;rotatable=0;whiteSpace=wrap;html=1;" vertex="1" parent="9eNbq8bN8Z7kRA4iMAXb-43">
          <mxGeometry y="30" width="200" height="30" as="geometry" />
        </mxCell>
        <mxCell id="9eNbq8bN8Z7kRA4iMAXb-45" value="Note informs player that Sam has a task for them" style="text;strokeColor=none;fillColor=none;align=left;verticalAlign=middle;spacingLeft=4;spacingRight=4;overflow=hidden;points=[[0,0.5],[1,0.5]];portConstraint=eastwest;rotatable=0;whiteSpace=wrap;html=1;" vertex="1" parent="9eNbq8bN8Z7kRA4iMAXb-43">
          <mxGeometry y="60" width="200" height="30" as="geometry" />
        </mxCell>
        <mxCell id="9eNbq8bN8Z7kRA4iMAXb-46" value="They can find Sam in their office" style="text;strokeColor=none;fillColor=none;align=left;verticalAlign=middle;spacingLeft=4;spacingRight=4;overflow=hidden;points=[[0,0.5],[1,0.5]];portConstraint=eastwest;rotatable=0;whiteSpace=wrap;html=1;" vertex="1" parent="9eNbq8bN8Z7kRA4iMAXb-43">
          <mxGeometry y="90" width="200" height="30" as="geometry" />
        </mxCell>
        <mxCell id="9eNbq8bN8Z7kRA4iMAXb-51" value="" style="edgeStyle=orthogonalEdgeStyle;rounded=0;orthogonalLoop=1;jettySize=auto;html=1;" edge="1" parent="9eNbq8bN8Z7kRA4iMAXb-31" source="9eNbq8bN8Z7kRA4iMAXb-47" target="9eNbq8bN8Z7kRA4iMAXb-50">
          <mxGeometry relative="1" as="geometry" />
        </mxCell>
        <mxCell id="9eNbq8bN8Z7kRA4iMAXb-70" style="edgeStyle=orthogonalEdgeStyle;rounded=0;orthogonalLoop=1;jettySize=auto;html=1;exitX=0.5;exitY=1;exitDx=0;exitDy=0;entryX=0;entryY=0.75;entryDx=0;entryDy=0;" edge="1" parent="9eNbq8bN8Z7kRA4iMAXb-31" source="9eNbq8bN8Z7kRA4iMAXb-47" target="9eNbq8bN8Z7kRA4iMAXb-54">
          <mxGeometry relative="1" as="geometry" />
        </mxCell>
        <mxCell id="9eNbq8bN8Z7kRA4iMAXb-47" value="EXPLORATION&lt;div&gt;StoryStops:&lt;/div&gt;&lt;div&gt;- Sam&#39;s Office&lt;/div&gt;&lt;div&gt;- Server Room&lt;/div&gt;" style="ellipse;whiteSpace=wrap;html=1;aspect=fixed;" vertex="1" parent="9eNbq8bN8Z7kRA4iMAXb-31">
          <mxGeometry x="280" y="60" width="120" height="120" as="geometry" />
        </mxCell>
        <mxCell id="9eNbq8bN8Z7kRA4iMAXb-60" value="" style="edgeStyle=orthogonalEdgeStyle;rounded=0;orthogonalLoop=1;jettySize=auto;html=1;" edge="1" parent="9eNbq8bN8Z7kRA4iMAXb-31" source="9eNbq8bN8Z7kRA4iMAXb-50" target="9eNbq8bN8Z7kRA4iMAXb-52">
          <mxGeometry relative="1" as="geometry" />
        </mxCell>
        <mxCell id="9eNbq8bN8Z7kRA4iMAXb-50" value="&lt;u&gt;SAM OFFICE&lt;/u&gt;&lt;div&gt;Sam assigns OBJ:&lt;/div&gt;&lt;div&gt;CATCH COPILOT&lt;/div&gt;" style="ellipse;whiteSpace=wrap;html=1;" vertex="1" parent="9eNbq8bN8Z7kRA4iMAXb-31">
          <mxGeometry x="480" y="80" width="120" height="80" as="geometry" />
        </mxCell>
        <mxCell id="9eNbq8bN8Z7kRA4iMAXb-77" style="edgeStyle=orthogonalEdgeStyle;rounded=0;orthogonalLoop=1;jettySize=auto;html=1;exitX=1;exitY=0.5;exitDx=0;exitDy=0;entryX=0;entryY=0.5;entryDx=0;entryDy=0;" edge="1" parent="9eNbq8bN8Z7kRA4iMAXb-31" source="9eNbq8bN8Z7kRA4iMAXb-52" target="9eNbq8bN8Z7kRA4iMAXb-74">
          <mxGeometry relative="1" as="geometry" />
        </mxCell>
        <mxCell id="9eNbq8bN8Z7kRA4iMAXb-52" value="EXPLORATION&lt;div&gt;StoryStops:&lt;/div&gt;&lt;div&gt;- Cubicle&lt;/div&gt;" style="ellipse;whiteSpace=wrap;html=1;aspect=fixed;" vertex="1" parent="9eNbq8bN8Z7kRA4iMAXb-31">
          <mxGeometry x="680" y="60" width="120" height="120" as="geometry" />
        </mxCell>
        <mxCell id="9eNbq8bN8Z7kRA4iMAXb-53" value="SERVER ROOM" style="swimlane;whiteSpace=wrap;html=1;" vertex="1" parent="9eNbq8bN8Z7kRA4iMAXb-31">
          <mxGeometry x="920" y="320" width="520" height="200" as="geometry" />
        </mxCell>
        <mxCell id="9eNbq8bN8Z7kRA4iMAXb-58" value="" style="edgeStyle=orthogonalEdgeStyle;rounded=0;orthogonalLoop=1;jettySize=auto;html=1;shape=flexArrow;" edge="1" parent="9eNbq8bN8Z7kRA4iMAXb-53" source="9eNbq8bN8Z7kRA4iMAXb-54" target="9eNbq8bN8Z7kRA4iMAXb-56">
          <mxGeometry relative="1" as="geometry" />
        </mxCell>
        <mxCell id="9eNbq8bN8Z7kRA4iMAXb-54" value="- Get ssd and floppy&lt;div&gt;- Feed Clyde&lt;/div&gt;&lt;div&gt;- Feed Toby&lt;/div&gt;" style="rounded=1;whiteSpace=wrap;html=1;" vertex="1" parent="9eNbq8bN8Z7kRA4iMAXb-53">
          <mxGeometry y="50" width="120" height="60" as="geometry" />
        </mxCell>
        <mxCell id="9eNbq8bN8Z7kRA4iMAXb-59" value="" style="edgeStyle=orthogonalEdgeStyle;rounded=0;orthogonalLoop=1;jettySize=auto;html=1;" edge="1" parent="9eNbq8bN8Z7kRA4iMAXb-53" source="9eNbq8bN8Z7kRA4iMAXb-56" target="9eNbq8bN8Z7kRA4iMAXb-57">
          <mxGeometry relative="1" as="geometry" />
        </mxCell>
        <mxCell id="9eNbq8bN8Z7kRA4iMAXb-68" style="edgeStyle=orthogonalEdgeStyle;rounded=0;orthogonalLoop=1;jettySize=auto;html=1;exitX=0.5;exitY=1;exitDx=0;exitDy=0;entryX=0;entryY=0.5;entryDx=0;entryDy=0;" edge="1" parent="9eNbq8bN8Z7kRA4iMAXb-53" source="9eNbq8bN8Z7kRA4iMAXb-56" target="9eNbq8bN8Z7kRA4iMAXb-66">
          <mxGeometry relative="1" as="geometry">
            <mxPoint x="380" y="150" as="targetPoint" />
          </mxGeometry>
        </mxCell>
        <mxCell id="9eNbq8bN8Z7kRA4iMAXb-56" value="FEED THE AI&#39;S&lt;div&gt;COMPLETE&lt;/div&gt;" style="ellipse;whiteSpace=wrap;html=1;" vertex="1" parent="9eNbq8bN8Z7kRA4iMAXb-53">
          <mxGeometry x="200" y="40" width="120" height="80" as="geometry" />
        </mxCell>
        <mxCell id="9eNbq8bN8Z7kRA4iMAXb-57" value="- Return ssd and Floppy" style="rounded=1;whiteSpace=wrap;html=1;" vertex="1" parent="9eNbq8bN8Z7kRA4iMAXb-53">
          <mxGeometry x="400" y="50" width="120" height="60" as="geometry" />
        </mxCell>
        <mxCell id="9eNbq8bN8Z7kRA4iMAXb-101" style="edgeStyle=orthogonalEdgeStyle;rounded=0;orthogonalLoop=1;jettySize=auto;html=1;exitX=1;exitY=0.5;exitDx=0;exitDy=0;" edge="1" parent="9eNbq8bN8Z7kRA4iMAXb-53" source="9eNbq8bN8Z7kRA4iMAXb-66">
          <mxGeometry relative="1" as="geometry">
            <mxPoint x="540" y="80" as="targetPoint" />
          </mxGeometry>
        </mxCell>
        <mxCell id="9eNbq8bN8Z7kRA4iMAXb-66" value="- Does NOT return ssd and floppy" style="rounded=1;whiteSpace=wrap;html=1;" vertex="1" parent="9eNbq8bN8Z7kRA4iMAXb-53">
          <mxGeometry x="400" y="130" width="120" height="60" as="geometry" />
        </mxCell>
        <mxCell id="9eNbq8bN8Z7kRA4iMAXb-89" style="edgeStyle=orthogonalEdgeStyle;rounded=0;orthogonalLoop=1;jettySize=auto;html=1;exitX=1;exitY=0.5;exitDx=0;exitDy=0;entryX=1;entryY=1;entryDx=0;entryDy=0;" edge="1" parent="9eNbq8bN8Z7kRA4iMAXb-31" source="9eNbq8bN8Z7kRA4iMAXb-73" target="9eNbq8bN8Z7kRA4iMAXb-52">
          <mxGeometry relative="1" as="geometry" />
        </mxCell>
        <mxCell id="9eNbq8bN8Z7kRA4iMAXb-90" style="edgeStyle=orthogonalEdgeStyle;rounded=0;orthogonalLoop=1;jettySize=auto;html=1;exitX=1;exitY=0.5;exitDx=0;exitDy=0;entryX=0.5;entryY=0;entryDx=0;entryDy=0;" edge="1" parent="9eNbq8bN8Z7kRA4iMAXb-31" source="9eNbq8bN8Z7kRA4iMAXb-73" target="9eNbq8bN8Z7kRA4iMAXb-87">
          <mxGeometry relative="1" as="geometry" />
        </mxCell>
        <mxCell id="9eNbq8bN8Z7kRA4iMAXb-73" value="CUBICLE" style="swimlane;whiteSpace=wrap;html=1;" vertex="1" parent="9eNbq8bN8Z7kRA4iMAXb-31">
          <mxGeometry x="920" y="40" width="320" height="160" as="geometry" />
        </mxCell>
        <mxCell id="9eNbq8bN8Z7kRA4iMAXb-76" value="" style="edgeStyle=orthogonalEdgeStyle;rounded=0;orthogonalLoop=1;jettySize=auto;html=1;shape=flexArrow;" edge="1" parent="9eNbq8bN8Z7kRA4iMAXb-73" source="9eNbq8bN8Z7kRA4iMAXb-74" target="9eNbq8bN8Z7kRA4iMAXb-75">
          <mxGeometry relative="1" as="geometry" />
        </mxCell>
        <mxCell id="9eNbq8bN8Z7kRA4iMAXb-74" value="- Catch Copilot MiniGame" style="rounded=1;whiteSpace=wrap;html=1;" vertex="1" parent="9eNbq8bN8Z7kRA4iMAXb-73">
          <mxGeometry y="50" width="120" height="60" as="geometry" />
        </mxCell>
        <mxCell id="9eNbq8bN8Z7kRA4iMAXb-75" value="CATCH COPILOT COMPLETE" style="ellipse;whiteSpace=wrap;html=1;" vertex="1" parent="9eNbq8bN8Z7kRA4iMAXb-73">
          <mxGeometry x="200" y="40" width="120" height="80" as="geometry" />
        </mxCell>
        <mxCell id="9eNbq8bN8Z7kRA4iMAXb-79" value="" style="endArrow=classic;html=1;rounded=0;exitX=0.333;exitY=1;exitDx=0;exitDy=0;exitPerimeter=0;entryX=-0.003;entryY=0.368;entryDx=0;entryDy=0;entryPerimeter=0;" edge="1" parent="9eNbq8bN8Z7kRA4iMAXb-31" source="9eNbq8bN8Z7kRA4iMAXb-52" target="9eNbq8bN8Z7kRA4iMAXb-54">
          <mxGeometry width="50" height="50" relative="1" as="geometry">
            <mxPoint x="990" y="450" as="sourcePoint" />
            <mxPoint x="1040" y="400" as="targetPoint" />
            <Array as="points">
              <mxPoint x="720" y="392" />
            </Array>
          </mxGeometry>
        </mxCell>
        <mxCell id="9eNbq8bN8Z7kRA4iMAXb-93" style="edgeStyle=orthogonalEdgeStyle;rounded=0;orthogonalLoop=1;jettySize=auto;html=1;exitX=1;exitY=0.5;exitDx=0;exitDy=0;entryX=0;entryY=0.5;entryDx=0;entryDy=0;" edge="1" parent="9eNbq8bN8Z7kRA4iMAXb-31" source="9eNbq8bN8Z7kRA4iMAXb-87" target="9eNbq8bN8Z7kRA4iMAXb-88">
          <mxGeometry relative="1" as="geometry" />
        </mxCell>
        <mxCell id="9eNbq8bN8Z7kRA4iMAXb-87" value="CATCH COPILOT&lt;div&gt;&amp;amp;&lt;/div&gt;&lt;div&gt;FEED AI&#39;s&lt;/div&gt;&lt;div&gt;COMPLETE&lt;/div&gt;" style="ellipse;whiteSpace=wrap;html=1;" vertex="1" parent="9eNbq8bN8Z7kRA4iMAXb-31">
          <mxGeometry x="1680" y="280" width="120" height="80" as="geometry" />
        </mxCell>
        <mxCell id="9eNbq8bN8Z7kRA4iMAXb-88" value="END DAY 2" style="ellipse;whiteSpace=wrap;html=1;" vertex="1" parent="9eNbq8bN8Z7kRA4iMAXb-31">
          <mxGeometry x="1880" y="280" width="120" height="80" as="geometry" />
        </mxCell>
        <mxCell id="9eNbq8bN8Z7kRA4iMAXb-92" style="edgeStyle=orthogonalEdgeStyle;rounded=0;orthogonalLoop=1;jettySize=auto;html=1;exitX=1;exitY=0.5;exitDx=0;exitDy=0;entryX=0.5;entryY=1;entryDx=0;entryDy=0;" edge="1" parent="9eNbq8bN8Z7kRA4iMAXb-31" source="9eNbq8bN8Z7kRA4iMAXb-57" target="9eNbq8bN8Z7kRA4iMAXb-87">
          <mxGeometry relative="1" as="geometry" />
        </mxCell>
        <mxCell id="9eNbq8bN8Z7kRA4iMAXb-95" value="Deb is pissed&lt;div&gt;- 1 Opinion&lt;/div&gt;" style="shape=parallelogram;perimeter=parallelogramPerimeter;whiteSpace=wrap;html=1;fixedSize=1;" vertex="1" parent="9eNbq8bN8Z7kRA4iMAXb-31">
          <mxGeometry x="1800" y="420" width="120" height="60" as="geometry" />
        </mxCell>
        <mxCell id="9eNbq8bN8Z7kRA4iMAXb-99" value="" style="html=1;labelBackgroundColor=#ffffff;startArrow=none;startFill=0;startSize=6;endArrow=classic;endFill=1;endSize=6;jettySize=auto;orthogonalLoop=1;strokeWidth=1;dashed=1;fontSize=14;rounded=0;exitX=0.914;exitY=0.776;exitDx=0;exitDy=0;entryX=0.338;entryY=0.02;entryDx=0;entryDy=0;entryPerimeter=0;exitPerimeter=0;" edge="1" parent="9eNbq8bN8Z7kRA4iMAXb-31" source="9eNbq8bN8Z7kRA4iMAXb-87" target="9eNbq8bN8Z7kRA4iMAXb-95">
          <mxGeometry width="60" height="60" relative="1" as="geometry">
            <mxPoint x="1790" y="410" as="sourcePoint" />
            <mxPoint x="1850" y="350" as="targetPoint" />
            <Array as="points">
              <mxPoint x="1800" y="360" />
              <mxPoint x="1840" y="360" />
            </Array>
          </mxGeometry>
        </mxCell>
        <mxCell id="9eNbq8bN8Z7kRA4iMAXb-100" style="edgeStyle=orthogonalEdgeStyle;rounded=0;orthogonalLoop=1;jettySize=auto;html=1;exitX=1;exitY=0.5;exitDx=0;exitDy=0;entryX=0.658;entryY=1.008;entryDx=0;entryDy=0;entryPerimeter=0;" edge="1" parent="9eNbq8bN8Z7kRA4iMAXb-31" source="9eNbq8bN8Z7kRA4iMAXb-57" target="9eNbq8bN8Z7kRA4iMAXb-52">
          <mxGeometry relative="1" as="geometry">
            <Array as="points">
              <mxPoint x="1460" y="400" />
              <mxPoint x="1460" y="280" />
              <mxPoint x="759" y="280" />
            </Array>
          </mxGeometry>
        </mxCell>
        <mxCell id="9eNbq8bN8Z7kRA4iMAXb-102" value="" style="html=1;labelBackgroundColor=#ffffff;startArrow=none;startFill=0;startSize=6;endArrow=classic;endFill=1;endSize=6;jettySize=auto;orthogonalLoop=1;strokeWidth=1;dashed=1;fontSize=14;rounded=0;exitX=1;exitY=0.5;exitDx=0;exitDy=0;entryX=0;entryY=1;entryDx=0;entryDy=0;" edge="1" parent="9eNbq8bN8Z7kRA4iMAXb-31" source="9eNbq8bN8Z7kRA4iMAXb-66" target="9eNbq8bN8Z7kRA4iMAXb-95">
          <mxGeometry width="60" height="60" relative="1" as="geometry">
            <mxPoint x="1580" y="500" as="sourcePoint" />
            <mxPoint x="1640" y="440" as="targetPoint" />
          </mxGeometry>
        </mxCell>
        <mxCell id="9eNbq8bN8Z7kRA4iMAXb-42" value="" style="edgeStyle=orthogonalEdgeStyle;rounded=0;orthogonalLoop=1;jettySize=auto;html=1;shape=flexArrow;" edge="1" parent="1" source="9eNbq8bN8Z7kRA4iMAXb-29">
          <mxGeometry relative="1" as="geometry">
            <mxPoint x="120" y="-840" as="targetPoint" />
          </mxGeometry>
        </mxCell>
        <mxCell id="9eNbq8bN8Z7kRA4iMAXb-115" style="edgeStyle=orthogonalEdgeStyle;rounded=0;orthogonalLoop=1;jettySize=auto;html=1;exitX=1;exitY=0.5;exitDx=0;exitDy=0;" edge="1" parent="1" source="9eNbq8bN8Z7kRA4iMAXb-107" target="9eNbq8bN8Z7kRA4iMAXb-103">
          <mxGeometry relative="1" as="geometry" />
        </mxCell>
        <mxCell id="9eNbq8bN8Z7kRA4iMAXb-107" value="START GAME" style="ellipse;whiteSpace=wrap;html=1;" vertex="1" parent="1">
          <mxGeometry x="-1680" y="-880" width="120" height="80" as="geometry" />
        </mxCell>
      </root>
    </mxGraphModel>
  </diagram>
</mxfile>
